<svg xmlns="http://www.w3.org/2000/svg" xmlns:xlink="http://www.w3.org/1999/xlink" width="1920" zoomAndPan="magnify" viewBox="0 0 1440 809.999993" height="1080" preserveAspectRatio="xMidYMid meet" version="1.0"><defs><g/></defs><g fill="#000000" fill-opacity="1"><g transform="translate(607.164648, 350.88006)"><g><path d="M 14.0625 -12.6875 C 14.0625 -14.113281 13.367188 -15.15625 11.984375 -15.8125 C 11.117188 -16.207031 10.097656 -16.40625 8.921875 -16.40625 L 0.984375 -16.40625 L 0.984375 -15.703125 L 3.171875 -15.703125 L 3.171875 -0.71875 L 0.984375 -0.71875 L 0.984375 0 L 9.078125 0 C 11.453125 0 13.1875 -0.738281 14.28125 -2.21875 C 14.84375 -3 15.125 -3.851562 15.125 -4.78125 C 15.125 -6.351562 14.40625 -7.519531 12.96875 -8.28125 C 12.382812 -8.59375 11.726562 -8.8125 11 -8.9375 C 12.382812 -9.4375 13.3125 -10.269531 13.78125 -11.4375 C 13.96875 -11.875 14.0625 -12.289062 14.0625 -12.6875 Z M 8.0625 -15.703125 C 9.957031 -15.703125 11.015625 -14.84375 11.234375 -13.125 C 11.273438 -12.90625 11.296875 -12.6875 11.296875 -12.46875 C 11.296875 -11.207031 10.8125 -10.296875 9.84375 -9.734375 C 9.332031 -9.421875 8.738281 -9.265625 8.0625 -9.265625 L 5.796875 -9.265625 L 5.796875 -15.703125 Z M 8.640625 -8.53125 C 10.265625 -8.53125 11.347656 -7.828125 11.890625 -6.421875 C 12.097656 -5.910156 12.203125 -5.363281 12.203125 -4.78125 C 12.203125 -3.289062 11.71875 -2.160156 10.75 -1.390625 C 10.164062 -0.941406 9.472656 -0.71875 8.671875 -0.71875 L 5.796875 -0.71875 L 5.796875 -8.53125 Z M 8.640625 -8.53125 "/></g></g></g><g fill="#000000" fill-opacity="1"><g transform="translate(623.404569, 350.88006)"><g><path d="M 13.953125 -11.4375 L 13.8125 -16.40625 L 0.984375 -16.40625 L 0.984375 -15.703125 L 3.171875 -15.703125 L 3.171875 -0.71875 L 0.984375 -0.71875 L 0.984375 0 L 13.8125 0 L 13.953125 -4.984375 L 13.34375 -4.984375 L 12.90625 -3.578125 C 12.4375 -2.015625 11.707031 -1.097656 10.71875 -0.828125 C 10.46875 -0.753906 10.203125 -0.71875 9.921875 -0.71875 L 5.796875 -0.71875 L 5.796875 -8.0625 L 11.375 -8.0625 L 11.375 -8.859375 L 5.796875 -8.859375 L 5.796875 -15.703125 L 9.921875 -15.703125 C 11.328125 -15.703125 12.3125 -14.78125 12.875 -12.9375 C 12.894531 -12.894531 12.90625 -12.859375 12.90625 -12.828125 L 13.34375 -11.4375 Z M 13.953125 -11.4375 "/></g></g></g><g fill="#000000" fill-opacity="1"><g transform="translate(638.687592, 350.88006)"><g><path d="M 13.234375 0 L 13.375 -5.546875 L 12.765625 -5.546875 L 12.25 -3.578125 C 11.832031 -1.972656 11.125 -1.046875 10.125 -0.796875 C 9.882812 -0.742188 9.632812 -0.71875 9.375 -0.71875 L 5.796875 -0.71875 L 5.796875 -15.703125 L 8.125 -15.703125 L 8.125 -16.40625 L 0.984375 -16.40625 L 0.984375 -15.703125 L 3.171875 -15.703125 L 3.171875 -0.71875 L 0.984375 -0.71875 L 0.984375 0 Z M 13.234375 0 "/></g></g></g><g fill="#000000" fill-opacity="1"><g transform="translate(652.275539, 350.88006)"><g><path d="M 16.953125 0 C 16.953125 -0.414062 16.804688 -0.644531 16.515625 -0.6875 C 16.421875 -0.707031 16.332031 -0.71875 16.25 -0.71875 L 15.34375 -0.71875 L 9.046875 -16.40625 L 7.828125 -16.40625 L 1.71875 -0.71875 L 0 -0.71875 L 0 0 L 4.890625 0 C 4.890625 -0.414062 4.753906 -0.644531 4.484375 -0.6875 C 4.390625 -0.707031 4.300781 -0.71875 4.21875 -0.71875 L 2.8125 -0.71875 L 4.875 -6.015625 L 10.53125 -6.015625 L 12.578125 -0.71875 L 10.75 -0.71875 L 10.75 0 Z M 10.203125 -6.8125 L 5.171875 -6.8125 L 7.6875 -13.34375 Z M 10.203125 -6.8125 "/></g></g></g><g fill="#000000" fill-opacity="1"><g transform="translate(669.226298, 350.88006)"><g><path d="M 9.40625 -15.703125 L 9.40625 -16.40625 L 2.15625 -16.40625 L 2.15625 -15.703125 L 4.625 -15.703125 L 4.625 -4.59375 C 4.625 -2.28125 4.359375 -0.894531 3.828125 -0.4375 C 3.609375 -0.269531 3.351562 -0.1875 3.0625 -0.1875 C 2.570312 -0.1875 2.242188 -0.472656 2.078125 -1.046875 C 1.878906 -1.734375 1.757812 -2.101562 1.71875 -2.15625 C 1.488281 -2.539062 1.109375 -2.742188 0.578125 -2.765625 C -0.00390625 -2.765625 -0.398438 -2.5 -0.609375 -1.96875 C -0.660156 -1.800781 -0.6875 -1.644531 -0.6875 -1.5 C -0.6875 -0.757812 -0.210938 -0.203125 0.734375 0.171875 C 1.285156 0.390625 1.914062 0.5 2.625 0.5 C 4.300781 0.5 5.550781 -0.140625 6.375 -1.421875 C 6.957031 -2.335938 7.25 -3.476562 7.25 -4.84375 L 7.25 -15.703125 Z M 9.40625 -15.703125 "/></g></g></g><g fill="#000000" fill-opacity="1"><g transform="translate(679.478773, 350.88006)"><g><path d="M 16.953125 0 C 16.953125 -0.414062 16.804688 -0.644531 16.515625 -0.6875 C 16.421875 -0.707031 16.332031 -0.71875 16.25 -0.71875 L 15.34375 -0.71875 L 9.046875 -16.40625 L 7.828125 -16.40625 L 1.71875 -0.71875 L 0 -0.71875 L 0 0 L 4.890625 0 C 4.890625 -0.414062 4.753906 -0.644531 4.484375 -0.6875 C 4.390625 -0.707031 4.300781 -0.71875 4.21875 -0.71875 L 2.8125 -0.71875 L 4.875 -6.015625 L 10.53125 -6.015625 L 12.578125 -0.71875 L 10.75 -0.71875 L 10.75 0 Z M 10.203125 -6.8125 L 5.171875 -6.8125 L 7.6875 -13.34375 Z M 10.203125 -6.8125 "/></g></g></g><g fill="#000000" fill-opacity="1"><g transform="translate(696.429532, 350.88006)"><g><path d="M 7.984375 0 L 7.984375 -0.71875 L 5.796875 -0.71875 L 5.796875 -7.515625 L 8.15625 -7.515625 L 12.46875 0 L 16.734375 0 C 16.734375 -0.414062 16.613281 -0.644531 16.375 -0.6875 C 16.289062 -0.707031 16.191406 -0.71875 16.078125 -0.71875 L 15.171875 -0.71875 L 10.796875 -7.765625 C 12.546875 -8.222656 13.734375 -9.144531 14.359375 -10.53125 C 14.578125 -11.0625 14.6875 -11.597656 14.6875 -12.140625 C 14.6875 -13.503906 14.09375 -14.597656 12.90625 -15.421875 C 11.925781 -16.078125 10.722656 -16.40625 9.296875 -16.40625 L 0.984375 -16.40625 L 0.984375 -15.703125 L 3.171875 -15.703125 L 3.171875 -0.71875 L 0.984375 -0.71875 L 0.984375 0 Z M 8.3125 -15.703125 C 9.84375 -15.703125 10.898438 -15.050781 11.484375 -13.75 C 11.703125 -13.226562 11.8125 -12.675781 11.8125 -12.09375 C 11.8125 -10.738281 11.359375 -9.707031 10.453125 -9 C 9.878906 -8.539062 9.203125 -8.3125 8.421875 -8.3125 L 5.796875 -8.3125 L 5.796875 -15.703125 Z M 8.3125 -15.703125 "/></g></g></g></svg>