<svg xmlns="http://www.w3.org/2000/svg" xmlns:xlink="http://www.w3.org/1999/xlink" width="1920" zoomAndPan="magnify" viewBox="0 0 1440 809.999993" height="1080" preserveAspectRatio="xMidYMid meet" version="1.0"><defs><g/></defs><g fill="#000000" fill-opacity="1"><g transform="translate(903.94198, 472.62002)"><g><path d="M 14.0625 -12.6875 C 14.0625 -14.113281 13.367188 -15.15625 11.984375 -15.8125 C 11.117188 -16.207031 10.097656 -16.40625 8.921875 -16.40625 L 0.984375 -16.40625 L 0.984375 -15.703125 L 3.171875 -15.703125 L 3.171875 -0.71875 L 0.984375 -0.71875 L 0.984375 0 L 9.078125 0 C 11.453125 0 13.1875 -0.738281 14.28125 -2.21875 C 14.84375 -3 15.125 -3.851562 15.125 -4.78125 C 15.125 -6.351562 14.40625 -7.519531 12.96875 -8.28125 C 12.382812 -8.59375 11.726562 -8.8125 11 -8.9375 C 12.382812 -9.4375 13.3125 -10.269531 13.78125 -11.4375 C 13.96875 -11.875 14.0625 -12.289062 14.0625 -12.6875 Z M 8.0625 -15.703125 C 9.957031 -15.703125 11.015625 -14.84375 11.234375 -13.125 C 11.273438 -12.90625 11.296875 -12.6875 11.296875 -12.46875 C 11.296875 -11.207031 10.8125 -10.296875 9.84375 -9.734375 C 9.332031 -9.421875 8.738281 -9.265625 8.0625 -9.265625 L 5.796875 -9.265625 L 5.796875 -15.703125 Z M 8.640625 -8.53125 C 10.265625 -8.53125 11.347656 -7.828125 11.890625 -6.421875 C 12.097656 -5.910156 12.203125 -5.363281 12.203125 -4.78125 C 12.203125 -3.289062 11.71875 -2.160156 10.75 -1.390625 C 10.164062 -0.941406 9.472656 -0.71875 8.671875 -0.71875 L 5.796875 -0.71875 L 5.796875 -8.53125 Z M 8.640625 -8.53125 "/></g></g></g><g fill="#000000" fill-opacity="1"><g transform="translate(920.181901, 472.62002)"><g><path d="M 13.953125 -11.4375 L 13.8125 -16.40625 L 0.984375 -16.40625 L 0.984375 -15.703125 L 3.171875 -15.703125 L 3.171875 -0.71875 L 0.984375 -0.71875 L 0.984375 0 L 13.8125 0 L 13.953125 -4.984375 L 13.34375 -4.984375 L 12.90625 -3.578125 C 12.4375 -2.015625 11.707031 -1.097656 10.71875 -0.828125 C 10.46875 -0.753906 10.203125 -0.71875 9.921875 -0.71875 L 5.796875 -0.71875 L 5.796875 -8.0625 L 11.375 -8.0625 L 11.375 -8.859375 L 5.796875 -8.859375 L 5.796875 -15.703125 L 9.921875 -15.703125 C 11.328125 -15.703125 12.3125 -14.78125 12.875 -12.9375 C 12.894531 -12.894531 12.90625 -12.859375 12.90625 -12.828125 L 13.34375 -11.4375 Z M 13.953125 -11.4375 "/></g></g></g><g fill="#000000" fill-opacity="1"><g transform="translate(935.464924, 472.62002)"><g><path d="M 7.984375 0 L 7.984375 -0.71875 L 5.796875 -0.71875 L 5.796875 -7.515625 L 8.15625 -7.515625 L 12.46875 0 L 16.734375 0 C 16.734375 -0.414062 16.613281 -0.644531 16.375 -0.6875 C 16.289062 -0.707031 16.191406 -0.71875 16.078125 -0.71875 L 15.171875 -0.71875 L 10.796875 -7.765625 C 12.546875 -8.222656 13.734375 -9.144531 14.359375 -10.53125 C 14.578125 -11.0625 14.6875 -11.597656 14.6875 -12.140625 C 14.6875 -13.503906 14.09375 -14.597656 12.90625 -15.421875 C 11.925781 -16.078125 10.722656 -16.40625 9.296875 -16.40625 L 0.984375 -16.40625 L 0.984375 -15.703125 L 3.171875 -15.703125 L 3.171875 -0.71875 L 0.984375 -0.71875 L 0.984375 0 Z M 8.3125 -15.703125 C 9.84375 -15.703125 10.898438 -15.050781 11.484375 -13.75 C 11.703125 -13.226562 11.8125 -12.675781 11.8125 -12.09375 C 11.8125 -10.738281 11.359375 -9.707031 10.453125 -9 C 9.878906 -8.539062 9.203125 -8.3125 8.421875 -8.3125 L 5.796875 -8.3125 L 5.796875 -15.703125 Z M 8.3125 -15.703125 "/></g></g></g><g fill="#000000" fill-opacity="1"><g transform="translate(952.196964, 472.62002)"><g><path d="M 13.453125 -4.34375 C 13.453125 -5.945312 12.578125 -7.253906 10.828125 -8.265625 C 10.535156 -8.441406 9.5 -8.929688 7.71875 -9.734375 C 6.113281 -10.441406 5.097656 -11.171875 4.671875 -11.921875 C 4.472656 -12.328125 4.375 -12.75 4.375 -13.1875 C 4.375 -14.351562 4.941406 -15.160156 6.078125 -15.609375 C 6.566406 -15.816406 7.101562 -15.921875 7.6875 -15.921875 C 9.195312 -15.921875 10.34375 -15.398438 11.125 -14.359375 C 11.675781 -13.648438 11.941406 -12.773438 11.921875 -11.734375 L 12.796875 -11.734375 L 12.796875 -16.546875 C 12.328125 -16.546875 12.0625 -16.390625 12 -16.078125 C 11.96875 -15.953125 11.953125 -15.796875 11.953125 -15.609375 C 10.597656 -16.328125 9.113281 -16.6875 7.5 -16.6875 C 5.507812 -16.6875 3.957031 -16.140625 2.84375 -15.046875 C 2.09375 -14.296875 1.71875 -13.398438 1.71875 -12.359375 C 1.71875 -10.828125 2.566406 -9.578125 4.265625 -8.609375 C 4.578125 -8.429688 5.617188 -7.941406 7.390625 -7.140625 C 9.003906 -6.410156 10.03125 -5.660156 10.46875 -4.890625 C 10.6875 -4.492188 10.796875 -4.054688 10.796875 -3.578125 C 10.796875 -2.304688 10.195312 -1.394531 9 -0.84375 C 8.4375 -0.613281 7.816406 -0.5 7.140625 -0.5 C 4.492188 -0.5 2.960938 -2.019531 2.546875 -5.0625 C 2.523438 -5.257812 2.503906 -5.453125 2.484375 -5.640625 L 1.609375 -5.640625 L 1.609375 0.0625 C 2.046875 0.0625 2.3125 -0.0664062 2.40625 -0.328125 C 2.445312 -0.492188 2.46875 -0.757812 2.46875 -1.125 C 3.863281 -0.1875 5.472656 0.28125 7.296875 0.28125 C 9.410156 0.28125 11.050781 -0.285156 12.21875 -1.421875 C 13.039062 -2.242188 13.453125 -3.21875 13.453125 -4.34375 Z M 13.453125 -4.34375 "/></g></g></g><g fill="#000000" fill-opacity="1"><g transform="translate(966.960528, 472.62002)"><g><path d="M 16.953125 0 C 16.953125 -0.414062 16.804688 -0.644531 16.515625 -0.6875 C 16.421875 -0.707031 16.332031 -0.71875 16.25 -0.71875 L 15.34375 -0.71875 L 9.046875 -16.40625 L 7.828125 -16.40625 L 1.71875 -0.71875 L 0 -0.71875 L 0 0 L 4.890625 0 C 4.890625 -0.414062 4.753906 -0.644531 4.484375 -0.6875 C 4.390625 -0.707031 4.300781 -0.71875 4.21875 -0.71875 L 2.8125 -0.71875 L 4.875 -6.015625 L 10.53125 -6.015625 L 12.578125 -0.71875 L 10.75 -0.71875 L 10.75 0 Z M 10.203125 -6.8125 L 5.171875 -6.8125 L 7.6875 -13.34375 Z M 10.203125 -6.8125 "/></g></g></g><g fill="#000000" fill-opacity="1"><g transform="translate(983.911286, 472.62002)"><g><path d="M 21.40625 -16.40625 L 16.734375 -16.40625 L 11.046875 -3.359375 L 4.8125 -16.40625 L 0.71875 -16.40625 L 0.71875 -15.703125 L 2.90625 -15.703125 L 2.90625 -0.71875 L 0.71875 -0.71875 L 0.71875 0 L 6.1875 0 C 6.1875 -0.40625 6.039062 -0.632812 5.75 -0.6875 C 5.65625 -0.707031 5.5625 -0.71875 5.46875 -0.71875 L 4 -0.71875 L 4 -12.203125 L 9.953125 0.171875 L 10.53125 0.171875 L 16.734375 -13.859375 L 16.734375 -0.71875 L 14.546875 -0.71875 L 14.546875 0 L 21.40625 0 C 21.40625 -0.40625 21.257812 -0.632812 20.96875 -0.6875 C 20.882812 -0.707031 20.796875 -0.71875 20.703125 -0.71875 L 19.21875 -0.71875 L 19.21875 -15.703125 L 21.40625 -15.703125 Z M 21.40625 -16.40625 "/></g></g></g><g fill="#000000" fill-opacity="1"><g transform="translate(1006.029293, 472.62002)"><g><path d="M 16.953125 0 C 16.953125 -0.414062 16.804688 -0.644531 16.515625 -0.6875 C 16.421875 -0.707031 16.332031 -0.71875 16.25 -0.71875 L 15.34375 -0.71875 L 9.046875 -16.40625 L 7.828125 -16.40625 L 1.71875 -0.71875 L 0 -0.71875 L 0 0 L 4.890625 0 C 4.890625 -0.414062 4.753906 -0.644531 4.484375 -0.6875 C 4.390625 -0.707031 4.300781 -0.71875 4.21875 -0.71875 L 2.8125 -0.71875 L 4.875 -6.015625 L 10.53125 -6.015625 L 12.578125 -0.71875 L 10.75 -0.71875 L 10.75 0 Z M 10.203125 -6.8125 L 5.171875 -6.8125 L 7.6875 -13.34375 Z M 10.203125 -6.8125 "/></g></g></g><g fill="#000000" fill-opacity="1"><g transform="translate(1022.980052, 472.62002)"><g/></g></g><g fill="#000000" fill-opacity="1"><g transform="translate(1028.311339, 472.62002)"><g><path d="M 8.5 -15.703125 C 10.164062 -15.703125 11.207031 -14.914062 11.625 -13.34375 C 11.726562 -12.90625 11.78125 -12.441406 11.78125 -11.953125 C 11.78125 -9.578125 10.753906 -8.28125 8.703125 -8.0625 C 8.492188 -8.050781 8.300781 -8.046875 8.125 -8.046875 L 5.796875 -8.046875 L 5.796875 -15.703125 Z M 8.5625 0 C 8.5625 -0.40625 8.414062 -0.632812 8.125 -0.6875 C 8.03125 -0.707031 7.9375 -0.71875 7.84375 -0.71875 L 5.796875 -0.71875 L 5.796875 -7.25 L 8.203125 -7.25 C 11.171875 -7.25 13.140625 -8.101562 14.109375 -9.8125 C 14.472656 -10.46875 14.65625 -11.207031 14.65625 -12.03125 C 14.65625 -13.820312 13.875 -15.085938 12.3125 -15.828125 C 11.46875 -16.210938 10.460938 -16.40625 9.296875 -16.40625 L 0.984375 -16.40625 L 0.984375 -15.703125 L 3.171875 -15.703125 L 3.171875 -0.71875 L 0.984375 -0.71875 L 0.984375 0 Z M 8.5625 0 "/></g></g></g><g fill="#000000" fill-opacity="1"><g transform="translate(1043.676382, 472.62002)"><g><path d="M 13.953125 -11.4375 L 13.8125 -16.40625 L 0.984375 -16.40625 L 0.984375 -15.703125 L 3.171875 -15.703125 L 3.171875 -0.71875 L 0.984375 -0.71875 L 0.984375 0 L 13.8125 0 L 13.953125 -4.984375 L 13.34375 -4.984375 L 12.90625 -3.578125 C 12.4375 -2.015625 11.707031 -1.097656 10.71875 -0.828125 C 10.46875 -0.753906 10.203125 -0.71875 9.921875 -0.71875 L 5.796875 -0.71875 L 5.796875 -8.0625 L 11.375 -8.0625 L 11.375 -8.859375 L 5.796875 -8.859375 L 5.796875 -15.703125 L 9.921875 -15.703125 C 11.328125 -15.703125 12.3125 -14.78125 12.875 -12.9375 C 12.894531 -12.894531 12.90625 -12.859375 12.90625 -12.828125 L 13.34375 -11.4375 Z M 13.953125 -11.4375 "/></g></g></g><g fill="#000000" fill-opacity="1"><g transform="translate(1058.959405, 472.62002)"><g><path d="M 21.40625 -16.40625 L 16.734375 -16.40625 L 11.046875 -3.359375 L 4.8125 -16.40625 L 0.71875 -16.40625 L 0.71875 -15.703125 L 2.90625 -15.703125 L 2.90625 -0.71875 L 0.71875 -0.71875 L 0.71875 0 L 6.1875 0 C 6.1875 -0.40625 6.039062 -0.632812 5.75 -0.6875 C 5.65625 -0.707031 5.5625 -0.71875 5.46875 -0.71875 L 4 -0.71875 L 4 -12.203125 L 9.953125 0.171875 L 10.53125 0.171875 L 16.734375 -13.859375 L 16.734375 -0.71875 L 14.546875 -0.71875 L 14.546875 0 L 21.40625 0 C 21.40625 -0.40625 21.257812 -0.632812 20.96875 -0.6875 C 20.882812 -0.707031 20.796875 -0.71875 20.703125 -0.71875 L 19.21875 -0.71875 L 19.21875 -15.703125 L 21.40625 -15.703125 Z M 21.40625 -16.40625 "/></g></g></g><g fill="#000000" fill-opacity="1"><g transform="translate(1081.077412, 472.62002)"><g><path d="M 14.0625 -12.6875 C 14.0625 -14.113281 13.367188 -15.15625 11.984375 -15.8125 C 11.117188 -16.207031 10.097656 -16.40625 8.921875 -16.40625 L 0.984375 -16.40625 L 0.984375 -15.703125 L 3.171875 -15.703125 L 3.171875 -0.71875 L 0.984375 -0.71875 L 0.984375 0 L 9.078125 0 C 11.453125 0 13.1875 -0.738281 14.28125 -2.21875 C 14.84375 -3 15.125 -3.851562 15.125 -4.78125 C 15.125 -6.351562 14.40625 -7.519531 12.96875 -8.28125 C 12.382812 -8.59375 11.726562 -8.8125 11 -8.9375 C 12.382812 -9.4375 13.3125 -10.269531 13.78125 -11.4375 C 13.96875 -11.875 14.0625 -12.289062 14.0625 -12.6875 Z M 8.0625 -15.703125 C 9.957031 -15.703125 11.015625 -14.84375 11.234375 -13.125 C 11.273438 -12.90625 11.296875 -12.6875 11.296875 -12.46875 C 11.296875 -11.207031 10.8125 -10.296875 9.84375 -9.734375 C 9.332031 -9.421875 8.738281 -9.265625 8.0625 -9.265625 L 5.796875 -9.265625 L 5.796875 -15.703125 Z M 8.640625 -8.53125 C 10.265625 -8.53125 11.347656 -7.828125 11.890625 -6.421875 C 12.097656 -5.910156 12.203125 -5.363281 12.203125 -4.78125 C 12.203125 -3.289062 11.71875 -2.160156 10.75 -1.390625 C 10.164062 -0.941406 9.472656 -0.71875 8.671875 -0.71875 L 5.796875 -0.71875 L 5.796875 -8.53125 Z M 8.640625 -8.53125 "/></g></g></g><g fill="#000000" fill-opacity="1"><g transform="translate(1097.317321, 472.62002)"><g><path d="M 13.953125 -11.4375 L 13.8125 -16.40625 L 0.984375 -16.40625 L 0.984375 -15.703125 L 3.171875 -15.703125 L 3.171875 -0.71875 L 0.984375 -0.71875 L 0.984375 0 L 13.8125 0 L 13.953125 -4.984375 L 13.34375 -4.984375 L 12.90625 -3.578125 C 12.4375 -2.015625 11.707031 -1.097656 10.71875 -0.828125 C 10.46875 -0.753906 10.203125 -0.71875 9.921875 -0.71875 L 5.796875 -0.71875 L 5.796875 -8.0625 L 11.375 -8.0625 L 11.375 -8.859375 L 5.796875 -8.859375 L 5.796875 -15.703125 L 9.921875 -15.703125 C 11.328125 -15.703125 12.3125 -14.78125 12.875 -12.9375 C 12.894531 -12.894531 12.90625 -12.859375 12.90625 -12.828125 L 13.34375 -11.4375 Z M 13.953125 -11.4375 "/></g></g></g><g fill="#000000" fill-opacity="1"><g transform="translate(1112.600356, 472.62002)"><g><path d="M 13.234375 0 L 13.375 -5.546875 L 12.765625 -5.546875 L 12.25 -3.578125 C 11.832031 -1.972656 11.125 -1.046875 10.125 -0.796875 C 9.882812 -0.742188 9.632812 -0.71875 9.375 -0.71875 L 5.796875 -0.71875 L 5.796875 -15.703125 L 8.125 -15.703125 L 8.125 -16.40625 L 0.984375 -16.40625 L 0.984375 -15.703125 L 3.171875 -15.703125 L 3.171875 -0.71875 L 0.984375 -0.71875 L 0.984375 0 Z M 13.234375 0 "/></g></g></g><g fill="#000000" fill-opacity="1"><g transform="translate(1126.188292, 472.62002)"><g><path d="M 16.953125 0 C 16.953125 -0.414062 16.804688 -0.644531 16.515625 -0.6875 C 16.421875 -0.707031 16.332031 -0.71875 16.25 -0.71875 L 15.34375 -0.71875 L 9.046875 -16.40625 L 7.828125 -16.40625 L 1.71875 -0.71875 L 0 -0.71875 L 0 0 L 4.890625 0 C 4.890625 -0.414062 4.753906 -0.644531 4.484375 -0.6875 C 4.390625 -0.707031 4.300781 -0.71875 4.21875 -0.71875 L 2.8125 -0.71875 L 4.875 -6.015625 L 10.53125 -6.015625 L 12.578125 -0.71875 L 10.75 -0.71875 L 10.75 0 Z M 10.203125 -6.8125 L 5.171875 -6.8125 L 7.6875 -13.34375 Z M 10.203125 -6.8125 "/></g></g></g><g fill="#000000" fill-opacity="1"><g transform="translate(1143.139051, 472.62002)"><g><path d="M 9.40625 -15.703125 L 9.40625 -16.40625 L 2.15625 -16.40625 L 2.15625 -15.703125 L 4.625 -15.703125 L 4.625 -4.59375 C 4.625 -2.28125 4.359375 -0.894531 3.828125 -0.4375 C 3.609375 -0.269531 3.351562 -0.1875 3.0625 -0.1875 C 2.570312 -0.1875 2.242188 -0.472656 2.078125 -1.046875 C 1.878906 -1.734375 1.757812 -2.101562 1.71875 -2.15625 C 1.488281 -2.539062 1.109375 -2.742188 0.578125 -2.765625 C -0.00390625 -2.765625 -0.398438 -2.5 -0.609375 -1.96875 C -0.660156 -1.800781 -0.6875 -1.644531 -0.6875 -1.5 C -0.6875 -0.757812 -0.210938 -0.203125 0.734375 0.171875 C 1.285156 0.390625 1.914062 0.5 2.625 0.5 C 4.300781 0.5 5.550781 -0.140625 6.375 -1.421875 C 6.957031 -2.335938 7.25 -3.476562 7.25 -4.84375 L 7.25 -15.703125 Z M 9.40625 -15.703125 "/></g></g></g><g fill="#000000" fill-opacity="1"><g transform="translate(1153.391537, 472.62002)"><g><path d="M 16.953125 0 C 16.953125 -0.414062 16.804688 -0.644531 16.515625 -0.6875 C 16.421875 -0.707031 16.332031 -0.71875 16.25 -0.71875 L 15.34375 -0.71875 L 9.046875 -16.40625 L 7.828125 -16.40625 L 1.71875 -0.71875 L 0 -0.71875 L 0 0 L 4.890625 0 C 4.890625 -0.414062 4.753906 -0.644531 4.484375 -0.6875 C 4.390625 -0.707031 4.300781 -0.71875 4.21875 -0.71875 L 2.8125 -0.71875 L 4.875 -6.015625 L 10.53125 -6.015625 L 12.578125 -0.71875 L 10.75 -0.71875 L 10.75 0 Z M 10.203125 -6.8125 L 5.171875 -6.8125 L 7.6875 -13.34375 Z M 10.203125 -6.8125 "/></g></g></g><g fill="#000000" fill-opacity="1"><g transform="translate(1170.342296, 472.62002)"><g><path d="M 7.984375 0 L 7.984375 -0.71875 L 5.796875 -0.71875 L 5.796875 -7.515625 L 8.15625 -7.515625 L 12.46875 0 L 16.734375 0 C 16.734375 -0.414062 16.613281 -0.644531 16.375 -0.6875 C 16.289062 -0.707031 16.191406 -0.71875 16.078125 -0.71875 L 15.171875 -0.71875 L 10.796875 -7.765625 C 12.546875 -8.222656 13.734375 -9.144531 14.359375 -10.53125 C 14.578125 -11.0625 14.6875 -11.597656 14.6875 -12.140625 C 14.6875 -13.503906 14.09375 -14.597656 12.90625 -15.421875 C 11.925781 -16.078125 10.722656 -16.40625 9.296875 -16.40625 L 0.984375 -16.40625 L 0.984375 -15.703125 L 3.171875 -15.703125 L 3.171875 -0.71875 L 0.984375 -0.71875 L 0.984375 0 Z M 8.3125 -15.703125 C 9.84375 -15.703125 10.898438 -15.050781 11.484375 -13.75 C 11.703125 -13.226562 11.8125 -12.675781 11.8125 -12.09375 C 11.8125 -10.738281 11.359375 -9.707031 10.453125 -9 C 9.878906 -8.539062 9.203125 -8.3125 8.421875 -8.3125 L 5.796875 -8.3125 L 5.796875 -15.703125 Z M 8.3125 -15.703125 "/></g></g></g></svg>