<svg xmlns="http://www.w3.org/2000/svg" xmlns:xlink="http://www.w3.org/1999/xlink" width="1920" zoomAndPan="magnify" viewBox="0 0 1440 809.999993" height="1080" preserveAspectRatio="xMidYMid meet" version="1.0"><path stroke-linecap="round" transform="matrix(0.000000000000000006, 0.0959267, 0.0959203, -0.000000000000000006, 3.599479, -0.334785)" fill="none" stroke-linejoin="round" d="M 16299.985118 1449.426482 C 13161.807182 1453.213806 10023.629246 1457.001129 8454.479196 1458.996601 C 6885.288425 1460.951349 6885.084819 1461.032797 6847.743495 1554.046212 C 6810.402171 1647.059627 6735.923128 1832.964286 6701.513728 1923.819334 C 6667.14505 2014.75583 6672.886737 2010.642715 6698.948294 1949.108884 C 6725.009851 1887.615777 6771.309835 1768.742677 6809.506305 1674.222477 C 6847.743495 1579.743001 6877.836449 1509.657148 6885.45131 1460.829177 C 6893.106892 1412.04193 6878.325103 1384.512566 6530.729089 1217.911041 C 6183.173795 1051.309517 5502.844998 745.676556 4981.898909 515.586452 C 4460.912099 285.496349 4099.38944 131.03055 3895.091267 56.017104 C 3690.833815 -18.996343 3643.760128 -14.59816 3302.027964 704.667576 C 2960.255078 1423.974037 2323.864437 2858.066603 1998.542909 3586.413772 C 1673.262103 4314.801665 1659.131853 4337.403436 1706.694194 4380.692955 C 1754.256535 4423.941749 1863.59291 4487.796843 2056.285546 4575.638322 C 2248.978182 4663.439077 2525.027079 4775.185492 2690.436523 4854.434225 C 2855.805245 4933.723682 2910.453072 4980.515457 2959.766424 5015.049334 C 3009.079776 5049.542488 3053.017932 5071.777744 3077.04343 5113.27541 C 3101.068928 5154.773077 3105.181767 5215.614601 3072.319773 5192.605591 C 3039.457779 5169.596581 2969.580229 5062.777759 2903.449029 4953.474779 C 2837.277107 4844.212523 2774.851534 4732.466108 2739.91276 4656.882527 C 2705.014706 4581.258222 2697.603451 4541.837475 2729.24381 4538.946077 C 2760.884169 4536.054679 2831.53542 4569.774079 2884.065746 4593.3125 C 2936.55535 4616.810197 2970.924028 4630.208364 2998.451548 4654.439092 C 3025.979067 4678.66982 3046.665428 4713.773832 3027.44503 4769.117629 C 3008.18391 4824.461425 2949.056753 4900.08573 2944.088769 4891.8595 C 2939.161506 4883.63327 2988.474858 4791.597228 3019.708005 4720.941241 C 3050.941152 4650.285253 3064.053373 4601.009319 3023.006421 4559.878168 C 2981.918748 4518.828465 2886.590459 4485.964267 2796.230155 4439.946247 C 2705.82913 4393.928226 2620.355367 4334.756382 2578.738319 4271.023459 C 2537.080549 4207.33126 2539.279493 4139.03726 2540.501128 4095.503398 C 2541.763485 4051.928812 2542.007812 4033.114364 2596.411312 4044.231992 C 2650.774091 4055.390344 2759.255321 4096.480772 3096.141665 4245.326671 C 3433.068729 4394.172569 3998.441628 4650.733216 4301.244342 4792.085915 C 4604.006335 4933.39789 4644.238863 4959.461194 4647.863048 4984.017713 C 4651.568676 5008.533508 4618.706682 5031.542519 4567.764482 5056.221209 C 4516.822283 5080.859176 4447.799878 5107.126099 4347.544327 5100.56955 C 4247.329496 5094.013 4115.840798 5054.551529 4025.439773 5028.243882 C 3935.038747 5001.976958 3885.766116 4988.823135 3843.008875 5038.139792 C 3800.292354 5087.415726 3764.131944 5199.162141 3742.753323 5233.696018 C 3721.415423 5268.189172 3714.859313 5225.429064 3727.971534 5182.750404 C 3741.124476 5139.990297 3773.98647 5097.311637 3806.889186 5079.23022 C 3839.75118 5061.148803 3872.613174 5067.705353 3920.256958 5084.117089 C 3967.900742 5100.56955 4030.367036 5126.877197 4080.0876 5148.257251 C 4129.808163 5169.596581 4166.782997 5186.049041 4173.339108 5205.718691 C 4179.935939 5225.469788 4156.073326 5248.478799 4121.175273 5263.261579 C 4086.236498 5278.044359 4040.262283 5284.641633 3967.900742 5284.641633 C 3895.579921 5284.641633 3796.993938 5278.044359 3716.48816 5289.569226 C 3635.941661 5301.053369 3573.516088 5330.618929 3519.275473 5370.0804 C 3465.034858 5409.541871 3419.019921 5458.817805 3361.521612 5486.754409 C 3303.982581 5514.731736 3234.960176 5521.247562 3175.833019 5498.279276 C 3116.665141 5475.270265 3067.351789 5422.654971 3055.868415 5363.52385 C 3044.344321 5304.352006 3070.650204 5238.623612 3103.308593 5196.474363 C 3135.966981 5154.365838 3174.977874 5135.917905 3216.106269 5140.845499 C 3257.153221 5145.732368 3300.317674 5174.116935 3326.827164 5203.071636 C 3353.295933 5232.026338 3363.150459 5261.591898 3359.892764 5294.496819 C 3356.594349 5327.361016 3340.142991 5363.52385 3317.135523 5389.790774 C 3294.128054 5416.098421 3264.564476 5432.510158 3234.593686 5422.654971 C 3204.582174 5412.799784 3174.204172 5376.63695 3167.403734 5332.492229 C 3160.603297 5288.347509 3177.461866 5236.139453 3209.102225 5218.058036 C 3240.742584 5199.976619 3287.164732 5216.021841 3343.237801 5240.456188 C 3399.310869 5264.890535 3465.034858 5297.754732 3626.087135 5365.152807 C 3787.139412 5432.510158 4043.519978 5534.44211 4268.667396 5621.509834 C 4493.774093 5708.618282 4687.729086 5780.903226 4807.69369 5802.28328 C 4927.658294 5823.62261 4973.67323 5794.097774 5262.875069 5184.379361 C 5552.117629 4574.701672 6084.587812 3384.911855 6359.822285 2770.062229 C 6635.09748 2155.253327 6653.177685 2115.384617 6635.749019 2087.366566 C 6618.279631 2059.30779 6565.301373 2043.099673 6536.552218 2035.077062 C 6507.762342 2027.054452 6503.24229 2027.298795 6498.600076 2042.814606 C 6493.957861 2058.37114 6489.234204 2089.239866 6243.033934 2626.551163 C 5996.874385 3163.903183 5509.238224 4207.7385 5244.346931 4757.837105 C 4979.414917 5307.93571 4937.227772 5364.338329 4861.323487 5362.750096 C 4785.378482 5361.161863 4675.757058 5301.542056 4231.448235 5092.587663 C 3787.139412 4883.63327 3008.18391 4525.385014 2577.638847 4329.828788 C 2147.093783 4134.272562 2064.918437 4101.408365 2038.612553 4052.091707 C 2012.34739 4002.815774 2041.910969 3937.087379 2327.855113 3287.94822 C 2613.799257 2638.80906 3156.123967 1406.299859 3433.842432 790.024896 C 3711.560897 173.749934 3724.673118 173.749934 4204.572255 375.903434 C 4684.43067 578.01621 5630.994559 982.282485 6130.195537 1196.530987 C 6629.355793 1410.820213 6681.112416 1435.050941 6695.120503 1476.344988 C 6709.047147 1517.639035 6685.225255 1575.955677 6649.472057 1659.154629 C 6613.75958 1742.353582 6566.115796 1850.394121 6545.510878 1907.733389 C 6524.987402 1965.031934 6531.584233 1971.588483 6073.063718 1971.588483 C 5614.583923 1971.588483 4690.986781 1965.031934 4223.874095 1963.810216 C 3756.76141 1962.547775 3746.051739 1966.66089 3754.725351 1944.507082 C 3763.31752 1922.31255 3791.252251 1873.81037 3809.332457 1839.317217 C 3827.412662 1804.783339 3835.63834 1784.258487 3844.271231 1774.403301 C 3852.904122 1764.548114 3861.944224 1765.362592 3874.689955 1752.616008 C 3887.394964 1739.869423 3903.846321 1713.6025 3944.933995 1639.240636 C 3985.980947 1564.878773 4051.745656 1442.421969 4088.272557 1364.394953 C 4124.8809 1286.327214 4132.251434 1252.607814 4136.364274 1235.788839 C 4140.477113 1218.969863 4141.291537 1218.969863 4144.630674 1213.309239 C 4147.92909 1207.730063 4153.752219 1196.490263 4140.395671 1182.318342 C 4126.998402 1168.146421 4094.543619 1151.001654 4065.753743 1146.359128 C 4036.963867 1141.716602 4011.879619 1149.494869 4005.527114 1143.956417 C 3999.133889 1138.417965 4011.472407 1119.522069 4023.403713 1104.739289 C 4035.294299 1089.956509 4046.818393 1079.24612 4064.898598 1074.318527 C 4082.938082 1069.390934 4107.615119 1070.205412 4126.91696 1076.354723 C 4146.2188 1082.544757 4160.226887 1094.0289 4166.782997 1108.811681 C 4173.339108 1123.594461 4172.524684 1141.675878 4167.597421 1161.019736 C 4162.670158 1180.32287 4153.630055 1200.888446 4147.033224 1207.444996 C 4140.477113 1214.001546 4136.364274 1206.630518 4122.80412 1197.18257 C 4109.243966 1187.693898 4086.236498 1176.209755 4068.156293 1170.060444 C 4050.076088 1163.87041 4036.963867 1163.055932 4021.774866 1183.580783 C 4006.545144 1204.146359 3989.279362 1246.051264 3936.708316 1343.014899 C 3884.096548 1439.978534 3796.220236 1591.960174 3752.241359 1675.810709 C 3708.262481 1759.620521 3708.262481 1775.217779 3713.596956 1784.665727 C 3718.931431 1794.113674 3729.641102 1797.412311 3743.608468 1786.335407 C 3757.575833 1775.217779 3774.841615 1749.72461 3804.405193 1702.077633 C 3833.968772 1654.430656 3875.91159 1584.589146 3917.813687 1508.191087 C 3959.715784 1431.752304 4001.617881 1348.756971 4029.1454 1294.51272 C 4056.67292 1240.309193 4069.825862 1214.816024 4067.749081 1198.404287 C 4065.713022 1181.951827 4048.447241 1174.580799 4033.25824 1168.390764 C 4018.069238 1162.241453 4004.916296 1157.31386 3982.31604 1177.431473 C 3959.715784 1197.589809 3927.668213 1242.752628 3882.874912 1318.376932 C 3838.122333 1393.960513 3780.583302 1499.964857 3746.458951 1568.991888 C 3712.375321 1638.018919 3701.706371 1670.027914 3703.335218 1685.625172 C 3705.004787 1701.263155 3718.931431 1700.448676 3721.008212 1697.150039 C 3723.044271 1693.892126 3713.189744 1688.109331 3681.142174 1732.905634 C 3649.135324 1777.701938 3594.894709 1872.995892 3541.468518 1974.88712 C 3488.042326 2076.778348 3435.471279 2185.26685 3389.456343 2271.479372 C 3343.482128 2357.814066 3303.982581 2421.87278 3291.277572 2452.700782 C 3278.531842 2483.488059 3292.499207 2481.044624 3318.397879 2495.012926 C 3344.25583 2508.981228 3382.085809 2539.401991 3395.645963 2559.926842 C 3409.206116 2580.492418 3398.496445 2591.162083 3384.121868 2594.012757 C 3369.747291 2596.904154 3351.667085 2591.976561 3327.437982 2576.786542 C 3303.168157 2561.555799 3272.790155 2536.103354 3269.084527 2523.764008 C 3265.3789 2511.424663 3288.386368 2512.279865 3308.950565 2521.727813 C 3329.474041 2531.17576 3347.554246 2549.216453 3359.892764 2561.14856 C 3372.190562 2573.080666 3378.787393 2578.822737 3383.307444 2585.379287 C 3387.827496 2591.976561 3390.270767 2599.347589 3375.081765 2630.58283 C 3359.892764 2661.81807 3327.03077 2716.8768 3303.168157 2752.184431 C 3279.346265 2787.532787 3264.564476 2803.17077 3254.70995 2808.872117 C 3244.855424 2814.654913 3239.92816 2810.541798 3233.331329 2820.396984 C 3226.775218 2830.252171 3218.54954 2854.07566 3204.174962 2880.383307 C 3189.759664 2906.690954 3169.236188 2935.442036 3148.3055 2956.374127 C 3127.334091 2977.346942 3105.95547 2990.500765 3092.028825 2998.686272 C 3078.06146 3006.912502 3071.464628 3010.211139 3071.464628 3006.098024 C 3071.464628 3001.984909 3078.06146 2990.500765 3081.767087 2972.419348 C 3085.431994 2954.337931 3086.246417 2929.699965 3090.359257 2905.469237 C 3094.472096 2881.197785 3101.883352 2857.374297 3112.14509 2833.143569 C 3122.406828 2808.872117 3135.55977 2784.23415 3147.491076 2773.971724 C 3159.381661 2763.709299 3170.050611 2767.822414 3183.651486 2776.863122 C 3197.170919 2785.903831 3213.622277 2799.872133 3225.146371 2803.985248 C 3236.629745 2808.057639 3243.185855 2802.315567 3244.855424 2797.795213 C 3246.484271 2793.274859 3243.185855 2789.976222 3231.702482 2781.383477 C 3220.178387 2772.750007 3200.469335 2758.781705 3185.280333 2751.369953 C 3170.050611 2743.998925 3159.381661 2743.143723 3154.454398 2745.220643 C 3149.527135 2747.256838 3150.341559 2752.184431 3154.047186 2744.406164 C 3157.752814 2736.587173 3164.308924 2716.021598 3175.833019 2687.677755 C 3187.316393 2659.333912 3203.76775 2623.171078 3222.662379 2586.641729 C 3241.557008 2550.071655 3262.935629 2513.094343 3272.382943 2493.791209 C 3281.830257 2474.447351 3279.346265 2472.818394 3290.463148 2478.153227 C 3301.53931 2483.488059 3326.175625 2495.827405 3345.518187 2505.682591 C 3364.820027 2515.578502 3378.787393 2522.94953 3391.940335 2532.804717 C 3405.093277 2542.700627 3417.391074 2554.999249 3426.838389 2552.51509 C 3436.326424 2550.071655 3442.882534 2532.804717 3490.93353 2439.954197 C 3538.984525 2347.103677 3628.571127 2178.669577 3676.622123 2089.117694 C 3724.673118 1999.525087 3731.26995 1988.855422 3583.57422 2038.131356 C 3435.83777 2087.40729 3133.890201 2196.669546 2981.633699 2247.61516 C 2829.417919 2298.560774 2826.974648 2291.149022 2359.006818 2284.185233 C 1891.038987 2277.18072 957.62804 2270.62417 24.217093 2264.026897 " stroke="#000000" stroke-width="36.547001" stroke-opacity="1" stroke-miterlimit="22.926001"/></svg>