<svg xmlns="http://www.w3.org/2000/svg" xmlns:xlink="http://www.w3.org/1999/xlink" width="1920" zoomAndPan="magnify" viewBox="0 0 1440 809.999993" height="1080" preserveAspectRatio="xMidYMid meet" version="1.0"><defs><g/></defs><g fill="#000000" fill-opacity="1"><g transform="translate(669.642926, 430.500116)"><g><path d="M 30.984375 -57.171875 C 37.023438 -57.171875 40.804688 -54.316406 42.328125 -48.609375 C 42.734375 -47.015625 42.9375 -45.320312 42.9375 -43.53125 C 42.9375 -34.894531 39.179688 -30.179688 31.671875 -29.390625 C 30.941406 -29.316406 30.242188 -29.28125 29.578125 -29.28125 L 21.125 -29.28125 L 21.125 -57.171875 Z M 31.171875 0 C 31.171875 -1.457031 30.640625 -2.285156 29.578125 -2.484375 C 29.253906 -2.554688 28.925781 -2.59375 28.59375 -2.59375 L 21.125 -2.59375 L 21.125 -26.390625 L 29.890625 -26.390625 C 40.710938 -26.390625 47.882812 -29.515625 51.40625 -35.765625 C 52.726562 -38.148438 53.390625 -40.835938 53.390625 -43.828125 C 53.390625 -50.335938 50.535156 -54.953125 44.828125 -57.671875 C 41.773438 -59.066406 38.125 -59.765625 33.875 -59.765625 L 3.59375 -59.765625 L 3.59375 -57.171875 L 11.5625 -57.171875 L 11.5625 -2.59375 L 3.59375 -2.59375 L 3.59375 0 Z M 31.171875 0 "/></g></g></g><g fill="#000000" fill-opacity="1"><g transform="translate(724.603386, 430.500116)"><g><path d="M 61.765625 0 C 61.765625 -1.53125 61.234375 -2.359375 60.171875 -2.484375 C 59.835938 -2.554688 59.503906 -2.59375 59.171875 -2.59375 L 55.875 -2.59375 L 32.96875 -59.765625 L 28.484375 -59.765625 L 6.28125 -2.59375 L 0 -2.59375 L 0 0 L 17.828125 0 C 17.828125 -1.53125 17.332031 -2.359375 16.34375 -2.484375 C 16.007812 -2.554688 15.675781 -2.59375 15.34375 -2.59375 L 10.265625 -2.59375 L 17.734375 -21.921875 L 38.34375 -21.921875 L 45.828125 -2.59375 L 39.140625 -2.59375 L 39.140625 0 Z M 37.15625 -24.796875 L 18.828125 -24.796875 L 27.984375 -48.609375 Z M 37.15625 -24.796875 "/></g></g></g><g fill="#000000" fill-opacity="1"><g transform="translate(785.341189, 430.500116)"><g><path d="M 29.09375 0 L 29.09375 -2.59375 L 21.125 -2.59375 L 21.125 -27.390625 L 29.6875 -27.390625 L 45.421875 0 L 60.96875 0 C 60.96875 -1.53125 60.535156 -2.359375 59.671875 -2.484375 C 59.335938 -2.554688 58.972656 -2.59375 58.578125 -2.59375 L 55.28125 -2.59375 L 39.34375 -28.296875 C 45.71875 -29.953125 50.035156 -33.300781 52.296875 -38.34375 C 53.085938 -40.269531 53.484375 -42.234375 53.484375 -44.234375 C 53.484375 -49.210938 51.328125 -53.195312 47.015625 -56.1875 C 43.429688 -58.570312 39.050781 -59.765625 33.875 -59.765625 L 3.59375 -59.765625 L 3.59375 -57.171875 L 11.5625 -57.171875 L 11.5625 -2.59375 L 3.59375 -2.59375 L 3.59375 0 Z M 30.28125 -57.171875 C 35.863281 -57.171875 39.71875 -54.816406 41.84375 -50.109375 C 42.632812 -48.179688 43.03125 -46.15625 43.03125 -44.03125 C 43.03125 -39.113281 41.367188 -35.359375 38.046875 -32.765625 C 35.992188 -31.109375 33.539062 -30.28125 30.6875 -30.28125 L 21.125 -30.28125 L 21.125 -57.171875 Z M 30.28125 -57.171875 "/></g></g></g><g fill="#000000" fill-opacity="1"><g transform="translate(845.282123, 430.500116)"><g><path d="M 61.765625 0 C 61.765625 -1.53125 61.234375 -2.359375 60.171875 -2.484375 C 59.835938 -2.554688 59.503906 -2.59375 59.171875 -2.59375 L 55.875 -2.59375 L 32.96875 -59.765625 L 28.484375 -59.765625 L 6.28125 -2.59375 L 0 -2.59375 L 0 0 L 17.828125 0 C 17.828125 -1.53125 17.332031 -2.359375 16.34375 -2.484375 C 16.007812 -2.554688 15.675781 -2.59375 15.34375 -2.59375 L 10.265625 -2.59375 L 17.734375 -21.921875 L 38.34375 -21.921875 L 45.828125 -2.59375 L 39.140625 -2.59375 L 39.140625 0 Z M 37.15625 -24.796875 L 18.828125 -24.796875 L 27.984375 -48.609375 Z M 37.15625 -24.796875 "/></g></g></g><g fill="#000000" fill-opacity="1"><g transform="translate(906.01992, 430.500116)"><g><path d="M 48.21875 0 L 48.703125 -20.21875 L 46.515625 -20.21875 L 44.625 -13.046875 C 43.09375 -7.203125 40.503906 -3.816406 36.859375 -2.890625 C 35.992188 -2.691406 35.097656 -2.59375 34.171875 -2.59375 L 21.125 -2.59375 L 21.125 -57.171875 L 29.578125 -57.171875 L 29.578125 -59.765625 L 3.59375 -59.765625 L 3.59375 -57.171875 L 11.5625 -57.171875 L 11.5625 -2.59375 L 3.59375 -2.59375 L 3.59375 0 Z M 48.21875 0 "/></g></g></g><g fill="#000000" fill-opacity="1"><g transform="translate(954.505766, 430.500116)"><g><path d="M 48.21875 0 L 48.703125 -20.21875 L 46.515625 -20.21875 L 44.625 -13.046875 C 43.09375 -7.203125 40.503906 -3.816406 36.859375 -2.890625 C 35.992188 -2.691406 35.097656 -2.59375 34.171875 -2.59375 L 21.125 -2.59375 L 21.125 -57.171875 L 29.578125 -57.171875 L 29.578125 -59.765625 L 3.59375 -59.765625 L 3.59375 -57.171875 L 11.5625 -57.171875 L 11.5625 -2.59375 L 3.59375 -2.59375 L 3.59375 0 Z M 48.21875 0 "/></g></g></g><g fill="#000000" fill-opacity="1"><g transform="translate(1002.991611, 430.500116)"><g><path d="M 61.765625 0 C 61.765625 -1.53125 61.234375 -2.359375 60.171875 -2.484375 C 59.835938 -2.554688 59.503906 -2.59375 59.171875 -2.59375 L 55.875 -2.59375 L 32.96875 -59.765625 L 28.484375 -59.765625 L 6.28125 -2.59375 L 0 -2.59375 L 0 0 L 17.828125 0 C 17.828125 -1.53125 17.332031 -2.359375 16.34375 -2.484375 C 16.007812 -2.554688 15.675781 -2.59375 15.34375 -2.59375 L 10.265625 -2.59375 L 17.734375 -21.921875 L 38.34375 -21.921875 L 45.828125 -2.59375 L 39.140625 -2.59375 L 39.140625 0 Z M 37.15625 -24.796875 L 18.828125 -24.796875 L 27.984375 -48.609375 Z M 37.15625 -24.796875 "/></g></g></g><g fill="#000000" fill-opacity="1"><g transform="translate(1063.729408, 430.500116)"><g><path d="M 19.421875 0 L 19.421875 -2.59375 L 11.453125 -2.59375 L 28.296875 -26 L 43.921875 -2.59375 L 36.65625 -2.59375 L 36.65625 0 L 60.859375 0 C 60.859375 -1.457031 60.328125 -2.285156 59.265625 -2.484375 C 58.929688 -2.554688 58.597656 -2.59375 58.265625 -2.59375 L 55.078125 -2.59375 L 34.46875 -33.171875 L 49.8125 -54.390625 C 51 -56.117188 52.359375 -57.046875 53.890625 -57.171875 C 54.285156 -57.171875 54.679688 -57.171875 55.078125 -57.171875 C 56.742188 -57.703125 57.644531 -58.566406 57.78125 -59.765625 L 40.34375 -59.765625 L 40.34375 -57.171875 L 48.3125 -57.171875 L 32.765625 -35.65625 L 18.328125 -57.171875 L 25.5 -57.171875 L 25.5 -59.765625 L 1.390625 -59.765625 L 1.390625 -57.171875 L 7.46875 -57.171875 L 26.5 -28.59375 L 9.65625 -5.375 C 8.269531 -3.519531 6.210938 -2.59375 3.484375 -2.59375 C 2.023438 -2.59375 1.195312 -2.0625 1 -1 C 0.925781 -0.664062 0.890625 -0.332031 0.890625 0 Z M 19.421875 0 "/></g></g></g></svg>